<?xml version="1.0"?>
<svg xmlns="http://www.w3.org/2000/svg" id="Capa_1" enable-background="new 0 0 512.001 512.001" height="512" viewBox="0 0 512.001 512.001" width="512"><g><g><circle cx="366.001" cy="200" r="10" data-original="#000000" class="active-path" style="fill:#00BDD6" data-old_color="#000000"/><path d="m100.454 450.32 90 60c4.807 3.205 11.297 1.672 14.185-3.283 18.044-30.94 34.684-59.369 52.87-90.441 15.295 27.437 31.677 59.285 49.854 90.443 2.896 4.965 9.391 6.478 14.185 3.281l90-60c4.554-3.035 5.821-9.167 2.845-13.759l-88.699-136.866c12.465-21.61 22.246-38.822 30.574-53.806 2.683-4.828.944-10.916-3.883-13.599-4.825-2.681-10.916-.945-13.599 3.883-31.452 56.591-82.191 142.15-146.073 251.617l-72.847-48.565c12.084-18.137 199.958-300.112 207.079-310.799 1.892-2.741 3.515-5.506 3.831-6.107 16.986-29.667 13.4-65.494-7.096-91.503 29.245 11.165 49 30.849 58.204 58.466 7.528 22.585 8.722 36.983-3.385 67.693-2.025 5.138.498 10.945 5.637 12.971 5.137 2.027 10.946-.498 12.971-5.636 14.223-36.081 12.541-54.981 3.751-81.352-20.356-61.08-80.147-82.958-144.857-82.958-.147 0 .382.01-1.884.01-.008 0-.015 0-.022 0-.005 0-.01 0-.016 0-.009 0-.018.001-.028.001-64.122.423-122.808 22.61-142.907 82.947-8.161 24.481-10.209 42.632 1.241 73.898 11.039 30.145 35.425 73.754 76.33 142.966l-91.036 136.633c-3.062 4.595-1.82 10.802 2.775 13.865zm218.878 37.441c-18.126-31.771-34.807-64.403-50.132-91.138 16.61-28.365 31.749-54.244 45.25-77.503l77.791 120.035zm-62.184-290.649-48.519-76.746c13.59-5.412 30.593-10.366 47.371-10.366 18.195 0 36.647 5.763 51.228 11.948zm60.08-92.637c-16.798-7.333-38.892-14.475-61.227-14.475-20.786 0-41.342 6.242-57.114 12.735-13.632-37.693 11.914-82.284 55.396-82.725.542-.005-.877-.009 1.719-.009 51.849-.001 76.037 47.214 61.226 84.474zm-187.11-15.194c9.777-29.351 31.513-49.746 63.898-60.472-21.143 25.79-24.907 62.574-8.956 91.819 1.823 3.36 3.945 6.679 6.313 9.871l53.634 84.836-43.977 66.004c-80.171-136.081-83.778-153.461-70.912-192.058z" data-original="#000000" class="active-path" style="fill:#00BDD6" data-old_color="#000000"/></g></g> </svg>
